<svg id="Cut" xmlns="http://www.w3.org/2000/svg" xmlns:xlink="http://www.w3.org/1999/xlink" viewBox="0 0 1296 288"><defs><style>.cls-1{fill:none;}.cls-2{clip-path:url(#clip-path);}.cls-3{fill:url(#linear-gradient);}.cls-4{fill:#ff671b;}.cls-5{fill:#fff;}</style><clipPath id="clip-path"><path class="cls-1" d="M1296,71.81A72.41,72.41,0,0,0,1223.81-.39H72.19A72.41,72.41,0,0,0,0,71.81V288.39H1296V71.81Z"/></clipPath><linearGradient id="linear-gradient" x1="6351.65" y1="-1319.46" x2="6351.65" y2="-1625.46" gradientTransform="translate(-5703.48 1616.46)" gradientUnits="userSpaceOnUse"><stop offset="0" stop-color="#0086ca"/><stop offset="0.21" stop-color="#008cce"/><stop offset="0.5" stop-color="#009dda"/><stop offset="0.83" stop-color="#00b9ed"/><stop offset="0.84" stop-color="#00baee"/></linearGradient></defs><title>merch</title><g class="cls-2"><path class="cls-3" d="M-7.25,297V72a81.09,81.09,0,0,1,81-81H1222.59a81.09,81.09,0,0,1,81,81V297H-7.25Z"/><path class="cls-4" d="M28.75,297V72a45.05,45.05,0,0,1,45-45h1149a45.05,45.05,0,0,1,45,45V297H28.75Z"/></g><path class="cls-5" d="M98.75,93.76V69.1h47.38V214.33H117.82V93.76H98.75Z"/><path class="cls-5" d="M266.13,189.68v24.65H168.28l37-46.61c10.21-12.71,31.59-37.94,31.59-54.32,0-10.4-6.74-23.5-18.68-23.5-12.71,0-18.49,13.87-17.91,24.85h-30c1.93-27.93,17.91-49.5,47.77-49.5,26.58,0,47.19,20.22,47.19,46.8,0,21.38-11.94,37.37-25.23,52.78l-21.38,24.85h47.58Z"/><path class="cls-5" d="M314.82,128.21a10.1,10.1,0,1,1-10.1-10.1A10.07,10.07,0,0,1,314.82,128.21ZM313.23,213h-17V153.27h17V213Z"/><path class="cls-5" d="M343.16,158.75h0.24c3.53-5.35,9.49-7.42,15.57-7.42,16.06,0,20.68,11.31,20.68,25.18V213h-17V181.37c0-7.18.36-16.42-9.25-16.42-10.1,0-10.22,11.31-10.22,18.49V213h-17V153.27h17v5.47Z"/><path class="cls-5" d="M452.5,128.08c6.14-7.29,16.12-11.71,26.1-11.71,26.67,0,43,24.95,43,49.7,0,25.71-15.74,50.66-43.56,50.66-9.59,0-19.77-4.22-25.14-11.9H452.5v59.1H425.63V119.45H452.5v8.64Zm41.83,38.38c0-12.67-8.44-26.29-22.26-26.29s-22.26,13.62-22.26,26.29,8.44,26.48,22.26,26.48S494.33,179.13,494.33,166.46Z"/><path class="cls-5" d="M555.73,170.88c0,11.9,4.61,25.33,18.61,25.33,8.83,0,14.39-5.37,18-12.86l24.75,4c-6.52,18.81-23,29.36-42.79,29.36-29.17,0-47-20.72-47-49.32s15.16-51,45.67-51c30.9,0,44.71,22.84,44.71,51.24v3.26h-62Zm36.65-16.69c-1.34-9.59-7.48-19-17.85-19-10.75,0-16.69,9.21-18,19h35.88Z"/><path class="cls-5" d="M719.22,213.67H692.74V205h-0.38c-5.76,7.48-15.74,11.71-25.52,11.71-27.63,0-43.37-25.14-43.37-50.66,0-24.95,15.93-49.7,43-49.7a34.85,34.85,0,0,1,26.29,11.9v-8.83h26.48v94.22Zm-23.79-47.21c0-12.67-8.64-26.29-22.45-26.29s-22.26,13.62-22.26,26.29,8.44,26.48,22.26,26.48S695.42,179.13,695.42,166.46Z"/><path class="cls-5" d="M765.46,129.24h0.38c5.37-8.25,13.43-12.86,23.41-12.86a31.17,31.17,0,0,1,11.13,2.3l-3.26,24.95A19.11,19.11,0,0,0,786,140.17c-18.61,0-20.53,16.5-20.53,31.09v42.41H738.59V119.45h26.87v9.79Z"/><path class="cls-5" d="M835.88,213.67H809V50.94h26.87V213.67Z"/><path class="cls-5" d="M904.3,214.89h-7.69V74h7.69V214.89Z"/><path class="cls-5" d="M999.94,214.89h-7.69V200.71h-0.34c-5.81,10.08-18.44,15.88-30.06,15.88-23.91,0-38.94-18.61-38.94-41.67s14.86-40.64,38.6-40.64c12.13,0,23.74,5.46,30.4,15.37h0.34V136h7.69v78.9Zm-69.33-40c0,18.1,12,34.5,31.08,34.5,20.15,0,31.08-16.39,31.08-35.35,0-18.27-12.47-32.62-31.59-32.62C943.07,141.45,930.6,157.85,930.6,174.93Z"/><path class="cls-5" d="M1034.77,214.89h-7.69V143.16h-8.71V136h8.71V107.81h7.69V136h13.83v7.17h-13.83v71.73Z"/><path class="cls-5" d="M1061.92,176.12c-0.51,20,13.32,33.3,31.59,33.3,12.3,0,22.2-7.34,27.84-17.93l6.49,3.76c-7.17,13.66-19.81,21.35-35.35,21.35-23.4,0-38.25-19-38.25-41.33,0-22,15.2-41,38.25-41,23.91,0,38.08,19.13,37.91,41.84h-68.48Zm60.8-7.17c-1.88-14.52-13.83-27.5-30.06-27.5-16.05,0-29.37,12.64-30.74,27.5h60.8Z"/><path class="cls-5" d="M1139.28,136h9.22l25.1,31.94L1198.88,136h9.22l-29.37,37.23,32.11,41.67h-9.05l-28.18-36.2-28,36.2h-9.05l32.11-41.67Z"/></svg>