<svg id="glide" xmlns="http://www.w3.org/2000/svg" xmlns:xlink="http://www.w3.org/1999/xlink" viewBox="0 0 3456 288"><defs><style>.cls-1{fill:none;}.cls-2{clip-path:url(#clip-path);}.cls-3{fill:url(#linear-gradient);}.cls-4{fill:#ff671b;}.cls-5{fill:#fff;}</style><clipPath id="clip-path"><path class="cls-1" d="M3456,72a72.21,72.21,0,0,0-72-72H72A72.21,72.21,0,0,0,0,72V288H3456V72Z"/></clipPath><linearGradient id="linear-gradient" x1="11286.57" y1="-2259.2" x2="11286.57" y2="-2565.2" gradientTransform="translate(-9558.57 2556.2)" gradientUnits="userSpaceOnUse"><stop offset="0" stop-color="#0086ca"/><stop offset="0.21" stop-color="#008cce"/><stop offset="0.5" stop-color="#009dda"/><stop offset="0.83" stop-color="#00b9ed"/><stop offset="0.84" stop-color="#00baee"/></linearGradient></defs><title>merch</title><g class="cls-2"><path class="cls-3" d="M-9,297V72A81.09,81.09,0,0,1,72-9H3384a81.09,81.09,0,0,1,81,81V297H-9Z"/><path class="cls-4" d="M27,297V72A45.05,45.05,0,0,1,72,27H3384a45.05,45.05,0,0,1,45,45V297H27Z"/></g><path class="cls-5" d="M1760.32,71h7.73v76.09h0.34c6.7-10,18.38-15.46,30.57-15.46,23.7,0,38.82,17.69,38.82,40.88s-15.12,41.91-39.16,41.91c-11.68,0-24.39-5.84-30.23-16h-0.34v14.26h-7.73V71Zm69.74,101.52c0-17.35-12.54-33.67-30.92-33.67-20.1,0-31.61,14.94-31.61,33.84,0,18.55,11.68,34.53,31.26,34.53C1818.21,207.18,1830.06,190.69,1830.06,172.48Z"/><path class="cls-5" d="M1926.25,212.67h-7.73V198.42h-0.34c-5.84,10.13-18.55,16-30.23,16-24,0-39.16-18.72-39.16-41.91s14.94-40.88,38.82-40.88c12.2,0,23.88,5.5,30.57,15.46h0.34V133.32h7.73v79.36Zm-69.74-40.19c0,18.21,12,34.7,31.26,34.7,20.27,0,31.26-16.49,31.26-35.56,0-18.38-12.54-32.81-31.78-32.81C1869.05,138.81,1856.51,155.3,1856.51,172.48Z"/><path class="cls-5" d="M1960.44,212.67h-7.73V71h7.73V212.67Z"/><path class="cls-5" d="M1994.62,212.67h-7.73V71h7.73V212.67Z"/><path class="cls-5" d="M2096.3,173c0,23.53-18.38,41.4-41.74,41.4a41.4,41.4,0,0,1,0-82.79C2077.93,131.6,2096.3,149.46,2096.3,173Zm-75.23.17c0,18,14.26,34,33,34,19.41,0,34.53-14.77,34.53-34,0-19.58-14.94-34.35-34.53-34.35C2035.16,138.81,2021.07,154.79,2021.07,173.17Z"/><path class="cls-5" d="M2190.26,173c0,23.53-18.38,41.4-41.74,41.4a41.4,41.4,0,0,1,0-82.79C2171.89,131.6,2190.26,149.46,2190.26,173Zm-75.23.17c0,18,14.26,34,33,34,19.41,0,34.53-14.77,34.53-34,0-19.58-14.94-34.35-34.53-34.35C2129.12,138.81,2115,154.79,2115,173.17Z"/><path class="cls-5" d="M2216.72,145.68h0.34a26,26,0,0,1,23.53-14.08c20.44,0,26.11,12.71,26.11,33.15v47.92H2259V164.75c0-14.26-1.72-25.94-19.07-25.94-19.92,0-23.19,18.55-23.19,34.7v39.16H2209V133.32h7.73v12.37Z"/><path class="cls-5" d="M2326.48,147.75a15.09,15.09,0,0,0-13.91-8.93c-6.7,0-13.57,5.5-13.57,12.37,0,19.07,38.65,9.79,38.65,38.48,0,14.6-11.34,24.73-25.59,24.73-13.23,0-24-8.07-27.31-21l7.56-2.4c2.92,9.45,9.28,16.15,19.75,16.15a17.74,17.74,0,0,0,17.86-17.86c0-9.79-7.56-12.88-15.46-15.63-10.82-4-23.19-8.59-23.19-22,0-12,10.13-20.1,21.64-20.1,8.07,0,16.83,5.32,20.27,12.71Z"/><path class="cls-5" d="M1217,208.05c0,30.63-10.34,55.89-45.55,55.89-23,0-46.13-14-47.47-39h28.33c1.34,10,8.42,16.46,18.57,16.46,18.95,0,19.33-16.65,19.33-30.82v-6.12h-0.38c-5.74,7.66-15.7,12.44-25.65,12.44-27.56,0-42.3-24.12-42.3-49.38,0-25.84,15.7-50.72,43.64-50.72a31.12,31.12,0,0,1,24.31,12.06h0.38v-9H1217v88.24Zm-23.54-41.15c0-12.63-8.42-26.41-22.2-26.41s-22.2,13.78-22.2,26.41,8.42,26.22,22.2,26.22S1193.48,179.53,1193.48,166.9Z"/><path class="cls-5" d="M1263,213.79h-26.8V51.48H1263V213.79Z"/><path class="cls-5" d="M1312.53,80.38a15.89,15.89,0,1,1-15.89-15.89A15.85,15.85,0,0,1,1312.53,80.38ZM1310,213.79h-26.8v-94H1310v94Z"/><path class="cls-5" d="M1392.53,205h-0.38c-5.55,7.66-15.5,11.87-25.27,11.87-27.56,0-43.26-25.07-43.26-50.53,0-24.88,15.89-49.57,42.88-49.57,9.76,0,19.71,4.21,25.65,11.68h0.38V51.48h26.8V213.79h-26.8V205Zm2.68-38.28c0-12.63-8.42-26.22-22.2-26.22s-22.2,13.59-22.2,26.22,8.42,26.41,22.2,26.41S1395.21,179.34,1395.21,166.71Z"/><path class="cls-5" d="M1469.09,80.38A15.89,15.89,0,1,1,1453.2,64.5,15.85,15.85,0,0,1,1469.09,80.38Zm-2.49,133.41h-26.8v-94h26.8v94Z"/><path class="cls-5" d="M1513.68,128.43h0.38c5.55-8.42,14.93-11.68,24.5-11.68,25.27,0,32.54,17.8,32.54,39.62v57.42h-26.8V164c0-11.29.57-25.84-14.55-25.84-15.89,0-16.08,17.8-16.08,29.09v46.51h-26.8v-94h26.8v8.61Z"/><path class="cls-5" d="M1678.67,208.05c0,30.63-10.34,55.89-45.55,55.89-23,0-46.13-14-47.47-39H1614c1.34,10,8.42,16.46,18.57,16.46,18.95,0,19.33-16.65,19.33-30.82v-6.12h-0.38c-5.74,7.66-15.7,12.44-25.65,12.44-27.56,0-42.3-24.12-42.3-49.38,0-25.84,15.7-50.72,43.64-50.72a31.12,31.12,0,0,1,24.31,12.06h0.38v-9h26.8v88.24Zm-23.54-41.15c0-12.63-8.42-26.41-22.2-26.41s-22.2,13.78-22.2,26.41,8.42,26.22,22.2,26.22S1655.13,179.53,1655.13,166.9Z"/></svg>