<svg id="Cut" xmlns="http://www.w3.org/2000/svg" xmlns:xlink="http://www.w3.org/1999/xlink" viewBox="0 0 864 288"><defs><style>.cls-1{fill:none;}.cls-2{clip-path:url(#clip-path);}.cls-3{fill:url(#linear-gradient);}.cls-4{fill:#8dc63f;}.cls-5{fill:#fff;}</style><clipPath id="clip-path"><path class="cls-1" d="M864,72A72.19,72.19,0,0,0,792,0L72,0A72.19,72.19,0,0,0,0,72V288l864,0V72Z"/></clipPath><linearGradient id="linear-gradient" x1="7368.63" y1="665.75" x2="7368.63" y2="359.73" gradientTransform="translate(-6936.63 -368.74)" gradientUnits="userSpaceOnUse"><stop offset="0" stop-color="#0086ca"/><stop offset="0.21" stop-color="#008cce"/><stop offset="0.5" stop-color="#009dda"/><stop offset="0.83" stop-color="#00b9ed"/><stop offset="0.84" stop-color="#00baee"/></linearGradient></defs><title>merch</title><g class="cls-2"><path class="cls-3" d="M-9.17,297V72a81.09,81.09,0,0,1,81-81L792.17-9a81.09,81.09,0,0,1,81,81V297Z"/><path class="cls-4" d="M26.83,297V72a45.05,45.05,0,0,1,45-45l720.34,0a45.05,45.05,0,0,1,45,45V297Z"/></g><path class="cls-5" d="M173.84,194.3v24.46H76.76l36.69-46.25c10.13-12.61,31.34-37.65,31.34-53.89,0-10.32-6.69-23.31-18.54-23.31-12.61,0-18.35,13.76-17.77,24.65H78.67c1.91-27.71,17.77-49.11,47.39-49.11,26.37,0,46.82,20.07,46.82,46.44,0,21.21-11.85,37.07-25,52.36L126.64,194.3h47.2Z"/><path class="cls-5" d="M287.54,170.8v22.55H272.25v25.42H245.88V193.35H182.43V180.73L246.64,72h25.61v98.8h15.29Zm-41.66-57.33H245.5L215.11,170.8h30.77V113.47Z"/><path class="cls-5" d="M317.93,133.73a10.13,10.13,0,1,1-10.13-10.13A10.1,10.1,0,0,1,317.93,133.73Zm-1.59,85H299.27v-59.9h17.08v59.9Z"/><path class="cls-5" d="M346.36,164.35h0.24c3.54-5.37,9.52-7.44,15.62-7.44,16.1,0,20.74,11.34,20.74,25.25v36.6H365.87V187c0-7.2.37-16.47-9.27-16.47-10.13,0-10.25,11.35-10.25,18.54v29.64H329.28v-59.9h17.08v5.49Z"/><path class="cls-5" d="M465.24,218.76h-7.73V77.06h7.73V218.76Z"/><path class="cls-5" d="M561.43,218.76H553.7V204.51h-0.34c-5.84,10.13-18.55,16-30.23,16-24,0-39.16-18.72-39.16-41.91s14.94-40.88,38.82-40.88c12.2,0,23.88,5.5,30.57,15.46h0.34V139.41h7.73v79.36Zm-69.74-40.19c0,18.21,12,34.7,31.26,34.7,20.27,0,31.26-16.49,31.26-35.56,0-18.38-12.54-32.81-31.78-32.81C504.23,144.9,491.69,161.39,491.69,178.57Z"/><path class="cls-5" d="M596.47,218.76h-7.73V146.62H580v-7.21h8.76V111.07h7.73v28.34h13.91v7.21H596.47v72.14Z"/><path class="cls-5" d="M623.78,179.77c-0.51,20.1,13.4,33.5,31.78,33.5,12.37,0,22.33-7.39,28-18l6.53,3.78c-7.21,13.74-19.92,21.47-35.56,21.47-23.53,0-38.48-19.07-38.48-41.57,0-22.16,15.29-41.22,38.48-41.22,24,0,38.3,19.24,38.13,42.08H623.78Zm61.15-7.21C683,158,671,144.9,654.7,144.9c-16.15,0-29.54,12.71-30.92,27.65h61.15Z"/><path class="cls-5" d="M701.59,139.41h9.28l25.25,32.12,25.42-32.12h9.28l-29.54,37.45,32.29,41.91h-9.1l-28.34-36.42-28.17,36.42h-9.1l32.29-41.91Z"/></svg>