<svg id="Cut" xmlns="http://www.w3.org/2000/svg" xmlns:xlink="http://www.w3.org/1999/xlink" viewBox="0 0 1296 288"><defs><style>.cls-1{fill:none;}.cls-2{clip-path:url(#clip-path);}.cls-3{fill:url(#linear-gradient);}.cls-4{fill:#7f56c5;}.cls-5{fill:#fff;}</style><clipPath id="clip-path"><path class="cls-1" d="M1296,71.42A72.41,72.41,0,0,0,1223.81-.78H72.19A72.41,72.41,0,0,0,0,71.42V288H1296V71.42Z"/></clipPath><linearGradient id="linear-gradient" x1="5036.46" y1="-2659.04" x2="5036.46" y2="-2965.04" gradientTransform="translate(-4388.29 2955.65)" gradientUnits="userSpaceOnUse"><stop offset="0" stop-color="#0086ca"/><stop offset="0.21" stop-color="#008cce"/><stop offset="0.5" stop-color="#009dda"/><stop offset="0.83" stop-color="#00b9ed"/><stop offset="0.84" stop-color="#00baee"/></linearGradient></defs><title>merch</title><g class="cls-2"><path class="cls-3" d="M-7.25,296.61v-225a81.09,81.09,0,0,1,81-81H1222.59a81.09,81.09,0,0,1,81,81v225H-7.25Z"/><path class="cls-4" d="M28.75,296.63v-225a45.05,45.05,0,0,1,45-45h1149a45.05,45.05,0,0,1,45,45v225H28.75Z"/></g><path class="cls-5" d="M116.77,93.37V68.72h47.38V213.94H135.83V93.37H116.77Z"/><path class="cls-5" d="M284.14,189.29v24.65H186.29l37-46.61c10.21-12.71,31.59-37.94,31.59-54.32,0-10.4-6.74-23.5-18.68-23.5-12.71,0-18.49,13.87-17.91,24.85h-30c1.93-27.93,17.91-49.5,47.77-49.5,26.58,0,47.19,20.22,47.19,46.8,0,21.38-11.94,37.37-25.23,52.78l-21.38,24.85h47.58Z"/><path class="cls-5" d="M332.83,127.82a10.1,10.1,0,1,1-10.1-10.1A10.07,10.07,0,0,1,332.83,127.82Zm-1.58,84.8h-17V152.88h17v59.73Z"/><path class="cls-5" d="M361.18,158.36h0.24c3.53-5.35,9.49-7.42,15.57-7.42,16.06,0,20.68,11.31,20.68,25.18v36.5h-17V181c0-7.18.36-16.42-9.25-16.42-10.1,0-10.22,11.31-10.22,18.49v29.56h-17V152.88h17v5.47Z"/><path class="cls-5" d="M492,141.32c-3.84-3.65-8.83-6.52-14.2-6.52-4.41,0-8.83,3.45-8.83,8.06,0,6.91,9.79,8.83,19.38,13,9.79,4.22,19.38,10.75,19.38,27.06,0,20.92-16.89,33.39-36.65,33.39a43.29,43.29,0,0,1-33.2-15.74l12.28-15.93c5.18,5.76,12.09,10.94,20,10.94,5.95,0,10.75-4,10.75-10.17,0-8.25-9.4-10.17-18.81-14.2s-18.81-9.59-18.81-24.75c0-17.65,12.28-30.51,29.94-30.51,10,0,22.64,3.07,30.32,9.79Z"/><path class="cls-5" d="M614.81,166.27c0,29.17-20,50.08-49.51,50.08s-49.51-20.92-49.51-50.08c0-29.36,20.15-50.28,49.51-50.28S614.81,136.91,614.81,166.27Zm-71.77,0c0,12.67,8.44,26.29,22.26,26.29s22.26-13.62,22.26-26.29c0-13-8.44-26.48-22.26-26.48S543,153.22,543,166.27Z"/><path class="cls-5" d="M654.33,213.28H627.47V50.55h26.87V213.28Z"/><path class="cls-5" d="M704,79.53A15.93,15.93,0,1,1,688.1,63.6,15.89,15.89,0,0,1,704,79.53Zm-2.5,133.75H674.67V119.06h26.87v94.22Z"/><path class="cls-5" d="M784.24,204.45h-0.38c-5.56,7.68-15.54,11.9-25.33,11.9-27.63,0-43.37-25.14-43.37-50.66,0-24.95,15.93-49.7,43-49.7,9.79,0,19.77,4.22,25.71,11.71h0.38V50.55h26.87V213.28H784.24v-8.83Zm2.69-38.38c0-12.67-8.44-26.29-22.26-26.29s-22.26,13.62-22.26,26.29,8.44,26.48,22.26,26.48S786.93,178.74,786.93,166.07Z"/><path class="cls-5" d="M891.3,214.5h-7.68V73.61h7.68V214.5Z"/><path class="cls-5" d="M986.93,214.5h-7.69V200.32H978.9c-5.81,10.08-18.44,15.88-30.06,15.88-23.91,0-38.94-18.61-38.94-41.67s14.86-40.64,38.6-40.64c12.13,0,23.74,5.46,30.4,15.37h0.34V135.6h7.69v78.9Zm-69.33-40c0,18.1,12,34.5,31.08,34.5,20.15,0,31.08-16.39,31.08-35.35,0-18.27-12.47-32.62-31.59-32.62C930.06,141.07,917.59,157.46,917.59,174.54Z"/><path class="cls-5" d="M1021.76,214.5h-7.69V142.77h-8.71V135.6h8.71V107.42h7.69V135.6h13.83v7.17h-13.83V214.5Z"/><path class="cls-5" d="M1048.91,175.73c-0.51,20,13.32,33.3,31.59,33.3,12.3,0,22.2-7.34,27.84-17.93l6.49,3.76c-7.17,13.66-19.81,21.35-35.35,21.35-23.4,0-38.25-19-38.25-41.33,0-22,15.2-41,38.25-41,23.91,0,38.08,19.13,37.91,41.84h-68.48Zm60.8-7.17c-1.88-14.52-13.83-27.5-30.06-27.5-16.05,0-29.37,12.64-30.74,27.5h60.8Z"/><path class="cls-5" d="M1126.27,135.6h9.22l25.1,31.94,25.27-31.94h9.22l-29.37,37.23,32.11,41.67h-9.05l-28.18-36.2-28,36.2h-9.05l32.11-41.67Z"/></svg>