<svg id="Cut" xmlns="http://www.w3.org/2000/svg" xmlns:xlink="http://www.w3.org/1999/xlink" viewBox="0 0 1728 288"><defs><style>.cls-1{fill:none;}.cls-2{clip-path:url(#clip-path);}.cls-3{fill:url(#linear-gradient);}.cls-4{fill:#ee2e3f;}.cls-5{fill:#fff;}</style><clipPath id="clip-path"><path class="cls-1" d="M1728,72a72.21,72.21,0,0,0-72-72H72A72.21,72.21,0,0,0,0,72V288H1728V72Z"/></clipPath><linearGradient id="linear-gradient" x1="6412.59" y1="-693.63" x2="6412.59" y2="-999.63" gradientTransform="translate(-5548.59 990.63)" gradientUnits="userSpaceOnUse"><stop offset="0" stop-color="#0086ca"/><stop offset="0.21" stop-color="#008cce"/><stop offset="0.5" stop-color="#009dda"/><stop offset="0.83" stop-color="#00b9ed"/><stop offset="0.84" stop-color="#00baee"/></linearGradient></defs><title>merch</title><g class="cls-2"><path class="cls-3" d="M-9,297V72A81.09,81.09,0,0,1,72-9H1656a81.09,81.09,0,0,1,81,81V297H-9Z"/><path class="cls-4" d="M27,297V72A45.05,45.05,0,0,1,72,27H1656a45.05,45.05,0,0,1,45,45V297H27Z"/></g><path class="cls-5" d="M597.24,125.52c6.12-7.26,16.05-11.66,26-11.66,26.56,0,42.81,24.84,42.81,49.5,0,25.61-15.67,50.45-43.38,50.45-9.56,0-19.68-4.2-25-11.85h-0.38v58.86H570.49V116.92h26.75v8.6Zm41.66,38.22c0-12.61-8.41-26.18-22.17-26.18s-22.17,13.57-22.17,26.18,8.41,26.37,22.17,26.37S638.9,176.35,638.9,163.74Z"/><path class="cls-5" d="M767.13,210.75H740.75v-8.6h-0.38C734.64,209.6,724.7,213.8,715,213.8c-27.52,0-43.19-25-43.19-50.45,0-24.84,15.86-49.5,42.81-49.5a34.71,34.71,0,0,1,26.18,11.85v-8.79h26.37v93.83Zm-23.7-47c0-12.61-8.6-26.18-22.36-26.18s-22.17,13.57-22.17,26.18,8.41,26.37,22.17,26.37S743.43,176.35,743.43,163.74Z"/><path class="cls-5" d="M816.42,210.75H789.67V139.47H780.5V116.92h9.17V85.19h26.75v31.72h16.43v22.55H816.42v71.28Z"/><path class="cls-5" d="M868.78,210.75H842V139.47h-9.17V116.92H842V85.19h26.75v31.72h16.43v22.55H868.78v71.28Z"/><path class="cls-5" d="M912.73,168.13c0,11.85,4.59,25.22,18.54,25.22,8.79,0,14.33-5.35,18-12.8l24.65,4c-6.5,18.73-22.93,29.24-42.62,29.24-29,0-46.82-20.64-46.82-49.11s15.1-50.83,45.48-50.83c30.77,0,44.53,22.74,44.53,51v3.25H912.73Zm36.5-16.63c-1.34-9.56-7.45-18.92-17.77-18.92-10.7,0-16.63,9.17-18,18.92h35.74Z"/><path class="cls-5" d="M1013.63,126.66H1014c5.35-8.22,13.38-12.8,23.31-12.8a31,31,0,0,1,11.08,2.29L1045.16,141a19,19,0,0,0-11.08-3.44c-18.54,0-20.45,16.44-20.45,31v42.23H986.88V116.92h26.75v9.75Z"/><path class="cls-5" d="M1085.29,125.52h0.38c5.54-8.41,14.91-11.66,24.46-11.66,25.22,0,32.49,17.77,32.49,39.56v57.33h-26.75V161.06c0-11.27.57-25.8-14.52-25.8-15.86,0-16.05,17.77-16.05,29v46.44h-26.75V116.92h26.75v8.6Z"/><path class="cls-5" d="M1228.35,210.75h-7.73V69h7.73V210.75Z"/><path class="cls-5" d="M1324.54,210.75h-7.73V196.49h-0.34c-5.84,10.13-18.55,16-30.23,16-24,0-39.16-18.72-39.16-41.91s14.94-40.88,38.82-40.88c12.2,0,23.88,5.5,30.58,15.46h0.34V131.39h7.73v79.36Zm-69.74-40.19c0,18.21,12,34.7,31.26,34.7,20.27,0,31.26-16.49,31.26-35.56,0-18.38-12.54-32.81-31.78-32.81C1267.34,136.89,1254.8,153.38,1254.8,170.55Z"/><path class="cls-5" d="M1359.58,210.75h-7.73V138.6h-8.76v-7.21h8.76V103h7.73v28.34h13.91v7.21h-13.91v72.14Z"/><path class="cls-5" d="M1386.9,171.76c-0.52,20.1,13.4,33.5,31.78,33.5,12.37,0,22.33-7.39,28-18l6.53,3.78c-7.21,13.74-19.93,21.47-35.56,21.47-23.53,0-38.48-19.07-38.48-41.57,0-22.16,15.29-41.22,38.48-41.22,24,0,38.3,19.24,38.13,42.08H1386.9Zm61.15-7.21c-1.89-14.6-13.91-27.65-30.23-27.65-16.15,0-29.54,12.71-30.92,27.65H1448Z"/><path class="cls-5" d="M1464.71,131.39H1474l25.25,32.12,25.42-32.12h9.28l-29.54,37.45,32.29,41.91h-9.1l-28.34-36.42-28.17,36.42H1462l32.29-41.91Z"/><path class="cls-5" d="M214.73,93.89V69.24h47.38V214.47H233.8V93.89H214.73Z"/><path class="cls-5" d="M382.1,189.81v24.65H284.26l37-46.61c10.21-12.71,31.59-37.94,31.59-54.32,0-10.4-6.74-23.5-18.68-23.5-12.71,0-18.49,13.87-17.91,24.85h-30C288.11,87,304.1,65.39,334,65.39c26.58,0,47.19,20.22,47.19,46.8,0,21.38-11.94,37.37-25.23,52.78l-21.38,24.85H382.1Z"/><path class="cls-5" d="M430.79,128.34a10.1,10.1,0,1,1-10.1-10.1A10.07,10.07,0,0,1,430.79,128.34Zm-1.58,84.8h-17V153.41h17v59.73Z"/><path class="cls-5" d="M459.14,158.88h0.24c3.53-5.35,9.49-7.42,15.57-7.42,16.06,0,20.68,11.31,20.68,25.18v36.5h-17V181.51c0-7.18.36-16.42-9.25-16.42-10.1,0-10.22,11.31-10.22,18.49v29.56h-17V153.41h17v5.47Z"/></svg>