<svg id="ultra" xmlns="http://www.w3.org/2000/svg" xmlns:xlink="http://www.w3.org/1999/xlink" viewBox="0 0 3456 288"><defs><style>.cls-1{fill:none;}.cls-2{clip-path:url(#clip-path);}.cls-3{fill:url(#linear-gradient);}.cls-4{fill:#ffd100;}.cls-5{fill:#fff;}</style><clipPath id="clip-path"><path class="cls-1" d="M3456,71.77a72.21,72.21,0,0,0-72-72H72a72.21,72.21,0,0,0-72,72v216H3456v-216Z"/></clipPath><linearGradient id="linear-gradient" x1="4132.78" y1="-4260.35" x2="4132.78" y2="-4566.35" gradientTransform="translate(-2404.78 4557.12)" gradientUnits="userSpaceOnUse"><stop offset="0" stop-color="#0086ca"/><stop offset="0.21" stop-color="#008cce"/><stop offset="0.5" stop-color="#009dda"/><stop offset="0.83" stop-color="#00b9ed"/><stop offset="0.84" stop-color="#00baee"/></linearGradient></defs><title>merch</title><g class="cls-2"><path class="cls-3" d="M-9,296.77v-225a81.09,81.09,0,0,1,81-81H3384a81.09,81.09,0,0,1,81,81v225H-9Z"/><path class="cls-4" d="M27,296.79v-225a45.05,45.05,0,0,1,45-45H3384a45.05,45.05,0,0,1,45,45v225H27Z"/></g><path class="cls-5" d="M968.1,118.61v50.83c0,10.7,1.72,23.51,15.29,23.51s15.29-12.8,15.29-23.51V118.61h26.75v55.23c0,27.33-14.14,41.66-42,41.66s-42-14.33-42-41.66V118.61H968.1Z"/><path class="cls-5" d="M1070.91,212.44h-26.75V50.39h26.75V212.44Z"/><path class="cls-5" d="M1119.83,212.44h-26.75V141.16h-9.17V118.61h9.17V86.89h26.75v31.72h16.43v22.55h-16.43v71.28Z"/><path class="cls-5" d="M1168.94,128.36h0.38c5.35-8.22,13.38-12.8,23.31-12.8a31,31,0,0,1,11.08,2.29l-3.25,24.84a19,19,0,0,0-11.08-3.44c-18.54,0-20.45,16.44-20.45,31v42.23h-26.75V118.61h26.75v9.75Z"/><path class="cls-5" d="M1301,212.44h-26.37v-8.6h-0.38c-5.73,7.45-15.67,11.66-25.42,11.66-27.52,0-43.19-25-43.19-50.45,0-24.84,15.86-49.5,42.81-49.5a34.71,34.71,0,0,1,26.18,11.85v-8.79H1301v93.83Zm-23.7-47c0-12.61-8.6-26.18-22.36-26.18s-22.17,13.57-22.17,26.18,8.41,26.37,22.17,26.37S1277.29,178,1277.29,165.43Z"/><path class="cls-5" d="M1423.66,140.78c-3.82-3.63-8.79-6.5-14.14-6.5-4.4,0-8.79,3.44-8.79,8,0,6.88,9.75,8.79,19.3,13,9.75,4.2,19.3,10.7,19.3,26.94,0,20.83-16.82,33.25-36.5,33.25a43.11,43.11,0,0,1-33.06-15.67L1382,184c5.16,5.73,12,10.89,19.87,10.89,5.92,0,10.7-4,10.7-10.13,0-8.22-9.36-10.13-18.73-14.14s-18.73-9.55-18.73-24.65c0-17.58,12.23-30.39,29.81-30.39,9.94,0,22.55,3.06,30.19,9.75Z"/><path class="cls-5" d="M1480.61,50.39v76.06H1481c5.54-7.64,14.91-10.89,24.46-10.89,25.23,0,32.49,17.77,32.49,39.56v57.33h-26.75V162.76c0-11.27.57-25.8-14.52-25.8-15.86,0-16.05,17.77-16.05,29v46.44h-26.75V50.39h26.75Z"/><path class="cls-5" d="M1645.72,212.44h-26.37v-8.6H1619c-5.73,7.45-15.67,11.66-25.42,11.66-27.52,0-43.19-25-43.19-50.45,0-24.84,15.86-49.5,42.81-49.5a34.71,34.71,0,0,1,26.18,11.85v-8.79h26.37v93.83Zm-23.7-47c0-12.61-8.6-26.18-22.36-26.18s-22.17,13.57-22.17,26.18,8.41,26.37,22.17,26.37S1622,178,1622,165.43Z"/><path class="cls-5" d="M1691.77,127.21c6.12-7.26,16.05-11.66,26-11.66,26.56,0,42.81,24.84,42.81,49.5,0,25.61-15.67,50.45-43.38,50.45-9.56,0-19.68-4.2-25-11.85h-0.38v58.86H1665V118.61h26.75v8.6Zm41.66,38.22c0-12.61-8.41-26.18-22.17-26.18s-22.17,13.57-22.17,26.18,8.41,26.37,22.17,26.37S1733.43,178,1733.43,165.43Z"/><path class="cls-5" d="M1794.57,169.83c0,11.85,4.59,25.22,18.54,25.22,8.79,0,14.33-5.35,18-12.8l24.65,4c-6.5,18.73-22.93,29.24-42.62,29.24-29,0-46.82-20.64-46.82-49.11s15.1-50.83,45.48-50.83c30.77,0,44.53,22.74,44.53,51v3.25h-61.73Zm36.5-16.63c-1.34-9.56-7.45-18.92-17.77-18.92-10.7,0-16.63,9.17-18,18.92h35.74Z"/><path class="cls-5" d="M1927.61,70.73h7.73v76.09h0.34c6.7-10,18.38-15.46,30.58-15.46,23.7,0,38.82,17.69,38.82,40.88s-15.12,41.91-39.16,41.91c-11.68,0-24.39-5.84-30.23-16h-0.34v14.26h-7.73V70.73Zm69.74,101.52c0-17.35-12.54-33.67-30.92-33.67-20.1,0-31.61,14.94-31.61,33.84,0,18.55,11.68,34.53,31.26,34.53C1985.5,206.95,1997.35,190.46,1997.35,172.25Z"/><path class="cls-5" d="M2093.54,212.44h-7.73V198.19h-0.34c-5.84,10.13-18.55,16-30.23,16-24,0-39.16-18.72-39.16-41.91s14.94-40.88,38.82-40.88c12.2,0,23.88,5.5,30.58,15.46h0.34V133.09h7.73v79.36Zm-69.74-40.19c0,18.21,12,34.7,31.26,34.7,20.27,0,31.26-16.49,31.26-35.56,0-18.38-12.54-32.81-31.78-32.81C2036.35,138.58,2023.81,155.07,2023.81,172.25Z"/><path class="cls-5" d="M2127.73,212.44H2120V70.73h7.73V212.44Z"/><path class="cls-5" d="M2161.91,212.44h-7.73V70.73h7.73V212.44Z"/><path class="cls-5" d="M2263.6,172.76c0,23.53-18.38,41.4-41.74,41.4a41.4,41.4,0,0,1,0-82.79C2245.22,131.37,2263.6,149.23,2263.6,172.76Zm-75.23.17c0,18,14.26,34,33,34,19.41,0,34.53-14.77,34.53-34,0-19.58-14.94-34.35-34.53-34.35C2202.45,138.58,2188.36,154.56,2188.36,172.94Z"/><path class="cls-5" d="M2357.56,172.76c0,23.53-18.38,41.4-41.74,41.4a41.4,41.4,0,0,1,0-82.79C2339.18,131.37,2357.56,149.23,2357.56,172.76Zm-75.23.17c0,18,14.26,34,33,34,19.41,0,34.53-14.77,34.53-34,0-19.58-14.94-34.35-34.53-34.35C2296.41,138.58,2282.32,154.56,2282.32,172.94Z"/><path class="cls-5" d="M2384,145.45h0.34a26,26,0,0,1,23.53-14.08c20.44,0,26.11,12.71,26.11,33.15v47.92h-7.73V164.52c0-14.26-1.72-25.94-19.07-25.94-19.93,0-23.19,18.55-23.19,34.7v39.16h-7.73V133.09H2384v12.37Z"/><path class="cls-5" d="M2493.77,147.52a15.09,15.09,0,0,0-13.91-8.93c-6.7,0-13.57,5.5-13.57,12.37,0,19.07,38.65,9.79,38.65,38.48,0,14.6-11.34,24.73-25.59,24.73-13.23,0-24-8.07-27.31-21l7.56-2.4c2.92,9.45,9.28,16.15,19.75,16.15a17.74,17.74,0,0,0,17.86-17.86c0-9.79-7.56-12.88-15.46-15.63-10.82-4-23.19-8.59-23.19-22,0-12,10.13-20.1,21.64-20.1,8.07,0,16.83,5.32,20.27,12.71Z"/></svg>