<svg id="sing" xmlns="http://www.w3.org/2000/svg" xmlns:xlink="http://www.w3.org/1999/xlink" viewBox="0 0 3456 288"><defs><style>.cls-1{fill:none;}.cls-2{clip-path:url(#clip-path);}.cls-3{fill:url(#linear-gradient);}.cls-4{fill:#8dc63f;}.cls-5{fill:#fff;}</style><clipPath id="clip-path"><path class="cls-1" d="M3454.93,72a72.21,72.21,0,0,0-72-72H70.94a72.21,72.21,0,0,0-72,72V288h3456V72Z"/></clipPath><linearGradient id="linear-gradient" x1="3822.61" y1="-3863.66" x2="3822.61" y2="-4169.66" gradientTransform="translate(-2095.68 4160.66)" gradientUnits="userSpaceOnUse"><stop offset="0" stop-color="#0086ca"/><stop offset="0.21" stop-color="#008cce"/><stop offset="0.5" stop-color="#009dda"/><stop offset="0.83" stop-color="#00b9ed"/><stop offset="0.84" stop-color="#00baee"/></linearGradient></defs><title>merch</title><g class="cls-2"><path class="cls-3" d="M-10.06,297V72a81.09,81.09,0,0,1,81-81h3312a81.09,81.09,0,0,1,81,81V297h-3474Z"/><path class="cls-4" d="M25.94,297V72a45.05,45.05,0,0,1,45-45h3312a45.05,45.05,0,0,1,45,45V297H25.94Z"/></g><path class="cls-5" d="M1154.3,141c-3.82-3.63-8.79-6.5-14.14-6.5-4.4,0-8.79,3.44-8.79,8,0,6.88,9.75,8.79,19.3,13,9.75,4.2,19.3,10.7,19.3,26.94,0,20.83-16.82,33.25-36.5,33.25a43.12,43.12,0,0,1-33.06-15.67l12.23-15.86c5.16,5.73,12,10.89,19.88,10.89,5.92,0,10.7-4,10.7-10.13,0-8.22-9.36-10.13-18.73-14.14s-18.73-9.55-18.73-24.65c0-17.58,12.23-30.39,29.81-30.39,9.94,0,22.55,3.06,30.19,9.75Z"/><path class="cls-5" d="M1215.07,79.48a15.86,15.86,0,1,1-15.86-15.86A15.82,15.82,0,0,1,1215.07,79.48Zm-2.48,133.2h-26.75V118.84h26.75v93.83Z"/><path class="cls-5" d="M1259.59,127.44H1260c5.54-8.41,14.91-11.66,24.46-11.66,25.23,0,32.49,17.77,32.49,39.56v57.33h-26.75V163c0-11.27.57-25.8-14.52-25.8-15.86,0-16.05,17.77-16.05,29v46.44h-26.75V118.84h26.75v8.6Z"/><path class="cls-5" d="M1424.32,206.94c0,30.58-10.32,55.8-45.48,55.8-22.93,0-46.06-14-47.39-39h28.28c1.34,9.94,8.41,16.43,18.54,16.43,18.92,0,19.3-16.63,19.3-30.77v-6.12h-0.38c-5.73,7.64-15.67,12.42-25.61,12.42-27.52,0-42.23-24.08-42.23-49.3,0-25.8,15.67-50.64,43.57-50.64a31.07,31.07,0,0,1,24.27,12h0.38v-9h26.75v88.1Zm-23.51-41.09c0-12.61-8.41-26.37-22.17-26.37s-22.17,13.76-22.17,26.37,8.41,26.18,22.17,26.18S1400.81,178.47,1400.81,165.85Z"/><path class="cls-5" d="M1474,79.48a15.86,15.86,0,1,1-15.86-15.86A15.82,15.82,0,0,1,1474,79.48Zm-2.48,133.2h-26.75V118.84h26.75v93.83Z"/><path class="cls-5" d="M1518.53,127.44h0.38c5.54-8.41,14.91-11.66,24.46-11.66,25.23,0,32.49,17.77,32.49,39.56v57.33H1549.1V163c0-11.27.57-25.8-14.52-25.8-15.86,0-16.05,17.77-16.05,29v46.44h-26.75V118.84h26.75v8.6Z"/><path class="cls-5" d="M1683.25,206.94c0,30.58-10.32,55.8-45.48,55.8-22.93,0-46.06-14-47.39-39h28.28c1.34,9.94,8.41,16.43,18.54,16.43,18.92,0,19.3-16.63,19.3-30.77v-6.12h-0.38c-5.73,7.64-15.67,12.42-25.61,12.42-27.52,0-42.23-24.08-42.23-49.3,0-25.8,15.67-50.64,43.57-50.64a31.07,31.07,0,0,1,24.27,12h0.38v-9h26.75v88.1Zm-23.51-41.09c0-12.61-8.41-26.37-22.17-26.37s-22.17,13.76-22.17,26.37,8.41,26.18,22.17,26.18S1659.75,178.47,1659.75,165.85Z"/><path class="cls-5" d="M1761.25,71H1769v76.09h0.34c6.7-10,18.38-15.46,30.57-15.46,23.7,0,38.82,17.69,38.82,40.88s-15.12,41.91-39.16,41.91c-11.68,0-24.39-5.84-30.23-16H1769v14.26h-7.73V71ZM1831,172.48c0-17.35-12.54-33.67-30.92-33.67-20.1,0-31.61,14.94-31.61,33.84,0,18.55,11.68,34.53,31.26,34.53C1819.14,207.18,1831,190.69,1831,172.48Z"/><path class="cls-5" d="M1927.19,212.67h-7.73V198.42h-0.34c-5.84,10.13-18.55,16-30.23,16-24,0-39.16-18.72-39.16-41.91s14.94-40.88,38.82-40.88c12.2,0,23.88,5.5,30.57,15.46h0.34V133.32h7.73v79.36Zm-69.74-40.19c0,18.21,12,34.7,31.26,34.7,20.27,0,31.26-16.49,31.26-35.56,0-18.38-12.54-32.81-31.78-32.81C1870,138.81,1857.45,155.3,1857.45,172.48Z"/><path class="cls-5" d="M1961.37,212.67h-7.73V71h7.73V212.67Z"/><path class="cls-5" d="M1995.55,212.67h-7.73V71h7.73V212.67Z"/><path class="cls-5" d="M2097.24,173c0,23.53-18.38,41.4-41.74,41.4a41.4,41.4,0,0,1,0-82.79C2078.86,131.6,2097.24,149.46,2097.24,173Zm-75.23.17c0,18,14.26,34,33,34,19.41,0,34.53-14.77,34.53-34,0-19.58-14.94-34.35-34.53-34.35C2036.09,138.81,2022,154.79,2022,173.17Z"/><path class="cls-5" d="M2191.2,173c0,23.53-18.38,41.4-41.74,41.4a41.4,41.4,0,0,1,0-82.79C2172.82,131.6,2191.2,149.46,2191.2,173Zm-75.23.17c0,18,14.26,34,33,34,19.41,0,34.53-14.77,34.53-34,0-19.58-14.94-34.35-34.53-34.35C2130,138.81,2116,154.79,2116,173.17Z"/><path class="cls-5" d="M2217.65,145.68H2218a26,26,0,0,1,23.53-14.08c20.44,0,26.11,12.71,26.11,33.15v47.92h-7.73V164.75c0-14.26-1.72-25.94-19.07-25.94-19.92,0-23.19,18.55-23.19,34.7v39.16h-7.73V133.32h7.73v12.37Z"/><path class="cls-5" d="M2327.41,147.75a15.09,15.09,0,0,0-13.91-8.93c-6.7,0-13.57,5.5-13.57,12.37,0,19.07,38.65,9.79,38.65,38.48,0,14.6-11.34,24.73-25.59,24.73-13.23,0-24-8.07-27.31-21l7.56-2.4c2.92,9.45,9.28,16.15,19.75,16.15a17.74,17.74,0,0,0,17.86-17.86c0-9.79-7.56-12.88-15.46-15.63-10.82-4-23.19-8.59-23.19-22,0-12,10.13-20.1,21.64-20.1,8.07,0,16.83,5.32,20.27,12.71Z"/></svg>