<svg id="Cut" xmlns="http://www.w3.org/2000/svg" xmlns:xlink="http://www.w3.org/1999/xlink" viewBox="0 0 1728 288"><defs><style>.cls-1{fill:none;}.cls-2{clip-path:url(#clip-path);}.cls-3{fill:url(#linear-gradient);}.cls-4{fill:#ffd100;}.cls-5{fill:#fff;}</style><clipPath id="clip-path"><path class="cls-1" d="M1728,72a72.21,72.21,0,0,0-72-72H72A72.21,72.21,0,0,0,0,72V288H1728V72Z"/></clipPath><linearGradient id="linear-gradient" x1="8688.51" y1="1500.7" x2="8688.51" y2="1194.7" gradientTransform="translate(-7824.51 -1203.7)" gradientUnits="userSpaceOnUse"><stop offset="0" stop-color="#0086ca"/><stop offset="0.21" stop-color="#008cce"/><stop offset="0.5" stop-color="#009dda"/><stop offset="0.83" stop-color="#00b9ed"/><stop offset="0.84" stop-color="#00baee"/></linearGradient></defs><title>merch</title><g class="cls-2"><path class="cls-3" d="M-9,297V72A81.09,81.09,0,0,1,72-9H1656a81.09,81.09,0,0,1,81,81V297H-9Z"/><path class="cls-4" d="M27,297V72A45.05,45.05,0,0,1,72,27H1656a45.05,45.05,0,0,1,45,45V297H27Z"/></g><path class="cls-5" d="M392.75,124.51c6.12-7.26,16.05-11.66,26-11.66,26.56,0,42.81,24.84,42.81,49.5,0,25.61-15.67,50.45-43.38,50.45-9.56,0-19.68-4.2-25-11.85h-0.38v58.86H366V115.91h26.75v8.6Zm41.66,38.22c0-12.61-8.41-26.18-22.17-26.18s-22.17,13.57-22.17,26.18,8.41,26.37,22.17,26.37S434.41,175.35,434.41,162.73Z"/><path class="cls-5" d="M500.72,209.75H474V47.69h26.75V209.75Z"/><path class="cls-5" d="M608.31,209.75H581.94v-8.6h-0.38c-5.73,7.45-15.67,11.66-25.42,11.66-27.52,0-43.19-25-43.19-50.45,0-24.84,15.86-49.5,42.81-49.5a34.71,34.71,0,0,1,26.18,11.85v-8.79h26.37v93.83Zm-23.7-47c0-12.61-8.6-26.18-22.36-26.18s-22.17,13.57-22.17,26.18,8.41,26.37,22.17,26.37S584.61,175.35,584.61,162.73Z"/><path class="cls-5" d="M614.61,115.91H645l22.36,53.32,24.08-53.32h29.81L653,259.81H623.59l31-64.4Z"/><path class="cls-5" d="M785.87,68h7.73v76.09h0.34c6.7-10,18.38-15.46,30.58-15.46,23.7,0,38.82,17.69,38.82,40.88s-15.12,41.91-39.16,41.91c-11.68,0-24.39-5.84-30.23-16H793.6v14.26h-7.73V68Zm69.74,101.52c0-17.35-12.54-33.67-30.92-33.67-20.1,0-31.61,14.94-31.61,33.84,0,18.55,11.68,34.53,31.26,34.53C843.75,204.25,855.61,187.76,855.61,169.55Z"/><path class="cls-5" d="M951.8,209.75h-7.73V195.49h-0.34c-5.84,10.13-18.55,16-30.23,16-24,0-39.16-18.72-39.16-41.91s14.94-40.88,38.82-40.88c12.2,0,23.88,5.5,30.58,15.46h0.34V130.39h7.73v79.36Zm-69.74-40.19c0,18.21,12,34.7,31.26,34.7,20.27,0,31.26-16.49,31.26-35.56,0-18.38-12.54-32.81-31.78-32.81C894.6,135.88,882.06,152.37,882.06,169.55Z"/><path class="cls-5" d="M986,209.75h-7.73V68H986V209.75Z"/><path class="cls-5" d="M1020.16,209.75h-7.73V68h7.73V209.75Z"/><path class="cls-5" d="M1121.85,170.07c0,23.53-18.38,41.4-41.74,41.4a41.4,41.4,0,0,1,0-82.79C1103.47,128.67,1121.85,146.53,1121.85,170.07Zm-75.23.17c0,18,14.26,34,33,34,19.41,0,34.53-14.77,34.53-34,0-19.58-14.94-34.35-34.53-34.35C1060.7,135.88,1046.62,151.86,1046.62,170.24Z"/><path class="cls-5" d="M1215.81,170.07c0,23.53-18.38,41.4-41.74,41.4a41.4,41.4,0,0,1,0-82.79C1197.43,128.67,1215.81,146.53,1215.81,170.07Zm-75.23.17c0,18,14.26,34,33,34,19.41,0,34.53-14.77,34.53-34,0-19.58-14.94-34.35-34.53-34.35C1154.66,135.88,1140.58,151.86,1140.58,170.24Z"/><path class="cls-5" d="M1242.27,142.76h0.34a26,26,0,0,1,23.53-14.08c20.44,0,26.11,12.71,26.11,33.15v47.92h-7.73V161.82c0-14.26-1.72-25.94-19.07-25.94-19.93,0-23.19,18.55-23.19,34.7v39.16h-7.73V130.39h7.73v12.37Z"/><path class="cls-5" d="M1352,144.82a15.09,15.09,0,0,0-13.91-8.93c-6.7,0-13.57,5.5-13.57,12.37,0,19.07,38.65,9.79,38.65,38.48,0,14.6-11.34,24.73-25.59,24.73-13.23,0-24-8.07-27.31-21l7.56-2.4c2.92,9.45,9.28,16.15,19.75,16.15a17.74,17.74,0,0,0,17.86-17.86c0-9.79-7.56-12.88-15.46-15.63-10.82-4-23.19-8.59-23.19-22,0-12,10.13-20.1,21.64-20.1,8.07,0,16.83,5.32,20.27,12.71Z"/></svg>