<svg id="Layer_1" data-name="Layer 1" xmlns="http://www.w3.org/2000/svg" viewBox="0 0 96 39"><defs><style>.cls-1{fill:#d1d3d4;}.cls-2{fill:#231f20;}.cls-3{fill:#fff;}</style></defs><title>counter</title><path class="cls-1" d="M8.33,38.5a7.82,7.82,0,0,1-7.78-7L0.5,31.07V17.58h95v13.5l-0.05.48a7.82,7.82,0,0,1-7.78,6.94H8.33Z"/><path class="cls-2" d="M95,18.08v13l-0.05.45A7.32,7.32,0,0,1,87.67,38H8.33A7.32,7.32,0,0,1,1,31.48L1,31v-13H95m1-1H0V31.67l0.05-.07A8.33,8.33,0,0,0,8.33,39H87.67a8.33,8.33,0,0,0,8.27-7.38l0.06,0V17.08h0Z"/><rect class="cls-3" x="0.5" y="13.83" width="95" height="3.67"/><path class="cls-2" d="M95,14.33V17H1V14.33H95m1-1H0V18H96V13.33h0Z"/><circle class="cls-3" cx="28.97" cy="20.67" r="1.53"/><path class="cls-2" d="M29,19.64a1,1,0,1,1-1,1,1,1,0,0,1,1-1m0-1a2,2,0,1,0,2,2,2,2,0,0,0-2-2h0Z"/><circle class="cls-3" cx="67.03" cy="20.67" r="1.53"/><path class="cls-2" d="M67,19.64a1,1,0,1,1-1,1,1,1,0,0,1,1-1m0-1a2,2,0,1,0,2,2,2,2,0,0,0-2-2h0Z"/></svg>