<svg id="Layer_1" data-name="Layer 1" xmlns="http://www.w3.org/2000/svg" viewBox="0 0 50 98"><defs><style>.cls-1{fill:#d1d3d4;}.cls-2{fill:#231f20;}</style></defs><title>counter</title><rect class="cls-1" x="0.5" y="27.13" width="31" height="59.93"/><path class="cls-2" d="M31,27.63V86.56H1V27.63H31m1-1H0V87.56H32V26.63h0Z"/><rect class="cls-1" x="0.5" y="0.39" width="49" height="30.68"/><path class="cls-2" d="M49,0.89V30.57H1V0.89H49m1-1H0V31.57H50V-0.11h0Z"/><rect class="cls-1" x="0.5" y="82.17" width="49" height="15.43"/><path class="cls-2" d="M49,82.67V97.11H1V82.67H49m1-1H0V98.11H50V81.67h0Z"/><path class="cls-2" d="M2.39,0.89V81.64H1V0.89H2.39m1-1H0V82.64H3.39V-0.11h0Z"/></svg>