<svg id="Layer_1" data-name="Layer 1" xmlns="http://www.w3.org/2000/svg" viewBox="0 0 50 110"><defs><style>.cls-1{fill:#939598;}</style></defs><title>counter</title><path class="cls-1" d="M49,3.33v25H3v-25H49m1-1H2v27H50v-27h0Z"/><path class="cls-1" d="M49,14.83v2H3v-2H49m1-1H2v4H50v-4h0Z"/><path class="cls-1" d="M28,33.86v28H3v-28H28m1-1H2v30H29v-30h0Z"/><path class="cls-1" d="M16.5,33.86v28h-2v-28h2m1-1h-4v30h4v-30h0Z"/><path class="cls-1" d="M28,63.86v28H3v-28H28m1-1H2v30H29v-30h0Z"/><path class="cls-1" d="M16.5,63.86v28h-2v-28h2m1-1h-4v30h4v-30h0Z"/></svg>