<svg id="Layer_1" data-name="Layer 1" xmlns="http://www.w3.org/2000/svg" viewBox="0 0 44 35"><defs><style>.cls-1{fill:#fff;}.cls-2{fill:#231f20;}</style></defs><title>counter</title><path class="cls-1" d="M9.67,34.5a4.55,4.55,0,0,1-3.06-1.59,5.21,5.21,0,0,0-3.34-1.75H2.5V0.5h41V31.17H33.75a5.14,5.14,0,0,0-3.49,1.76,4.4,4.4,0,0,1-3.35,1.58H9.67Z"/><path class="cls-2" d="M43,1V30.67H33.7a5.54,5.54,0,0,0-3.78,1.89,3.9,3.9,0,0,1-3,1.44H9.67a4.12,4.12,0,0,1-2.72-1.46,5.68,5.68,0,0,0-3.66-1.88H3V1H43m1-1H2V31.67H3.25C5.88,31.75,6.79,35,9.67,35H26.92c3.58,0,3.67-3.17,6.83-3.33H44V0h0Z"/><rect class="cls-1" x="0.5" y="0.5" width="2.39" height="30.66"/><path class="cls-2" d="M2.39,1V30.66H1V1H2.39m1-1H0V31.66H3.39V0h0Z"/></svg>