<svg id="Layer_1" data-name="Layer 1" xmlns="http://www.w3.org/2000/svg" viewBox="0 0 97 35"><defs><style>.cls-1{fill:#fff;}.cls-2{fill:#231f20;}.cls-3{fill:#d1d3d4;}</style></defs><title>counter</title><rect class="cls-1" x="0.5" y="14" width="96" height="3.67"/><path class="cls-2" d="M96,14.5v2.67H1V14.5H96m1-1H0v4.67H97V13.5h0Z"/><path class="cls-3" d="M13.5,34.5a26.92,26.92,0,0,1-13-3.12V17.75h96V31.4c-1,.62-5.44,3.1-13,3.1h-70Z"/><path class="cls-2" d="M96,18.25V31.11C94.71,31.87,90.45,34,83.5,34h-70A26.8,26.8,0,0,1,1,31.09V18.25H96m1-1H0V31.67S5.13,35,13.5,35h70C92.38,35,97,31.67,97,31.67V17.25h0Z"/><circle class="cls-2" cx="13.5" cy="24.46" r="0.63"/><circle class="cls-2" cx="48.5" cy="24.46" r="0.63"/><circle class="cls-2" cx="83.5" cy="24.46" r="0.63"/></svg>