<svg id="Layer_1" data-name="Layer 1" xmlns="http://www.w3.org/2000/svg" viewBox="0 0 50 110"><defs><style>.cls-1{fill:#d1d3d4;}.cls-2{fill:#231f20;}</style></defs><title>counter</title><rect class="cls-1" x="0.5" y="27.24" width="31" height="71.24"/><path class="cls-2" d="M31,27.74V98H1V27.74H31m1-1H0V99H32V26.74h0Z"/><rect class="cls-1" x="0.5" y="0.5" width="49" height="30.68"/><path class="cls-2" d="M49,1V30.68H1V1H49m1-1H0V31.68H50V0h0Z"/><rect class="cls-1" x="0.5" y="94.07" width="49" height="15.43"/><path class="cls-2" d="M49,94.57V109H1V94.57H49m1-1H0V110H50V93.57h0Z"/><path class="cls-2" d="M2.39,1V30.68H1V1H2.39m1-1H0V31.68H3.39V0h0Z"/></svg>