<svg id="Layer_1" data-name="Layer 1" xmlns="http://www.w3.org/2000/svg" viewBox="0 0 48 35"><defs><style>.cls-1{fill:#231f20;}.cls-2{fill:none;stroke:#231f20;stroke-miterlimit:10;}</style></defs><title>counter</title><path class="cls-1" d="M21.63,18.12a5.65,5.65,0,0,1-1.86.33,3.12,3.12,0,0,1-2.27-.8,3.12,3.12,0,0,1-.85-2.26,3,3,0,0,1,3.29-3.13,3.76,3.76,0,0,1,1.51.28l-0.19.64a3.14,3.14,0,0,0-1.34-.26,2.27,2.27,0,0,0-2.44,2.44,2.22,2.22,0,0,0,2.34,2.45,2.56,2.56,0,0,0,1-.16V15.83H19.63V15.2h2v2.92Z"/><path class="cls-1" d="M25.28,18.39l-0.06-.55h0a1.63,1.63,0,0,1-1.33.65,1.24,1.24,0,0,1-1.33-1.25c0-1.05.94-1.63,2.62-1.62V15.53a0.9,0.9,0,0,0-1-1,2.17,2.17,0,0,0-1.13.32l-0.18-.52a2.71,2.71,0,0,1,1.43-.39,1.55,1.55,0,0,1,1.66,1.78v1.63a6.17,6.17,0,0,0,.07,1H25.28Zm-0.12-2.22c-0.86,0-1.85.14-1.85,1a0.7,0.7,0,0,0,.75.76,1.08,1.08,0,0,0,1.05-.73,0.82,0.82,0,0,0,0-.25V16.17Z"/><path class="cls-1" d="M27.21,15.46c0-.56,0-1,0-1.42h0.71l0,0.75h0a1.71,1.71,0,0,1,1.55-.85,2,2,0,0,1,1.84,2.21,2.06,2.06,0,0,1-2,2.34A1.53,1.53,0,0,1,28,17.81h0v2.37H27.21V15.46ZM28,16.62a1.82,1.82,0,0,0,0,.32,1.22,1.22,0,0,0,1.19.93,1.43,1.43,0,0,0,1.32-1.68,1.42,1.42,0,0,0-1.3-1.62A1.38,1.38,0,0,0,28,15.87v0.75Z"/><line class="cls-2" x1="47.13" y1="16.25" x2="33.5" y2="16.25"/><polygon class="cls-1" points="44.48 12.98 43.94 13.56 46.83 16.25 43.94 18.93 44.48 19.52 48 16.25 44.48 12.98"/><line class="cls-2" x1="0.87" y1="16.25" x2="14.5" y2="16.25"/><polygon class="cls-1" points="3.52 19.52 4.06 18.94 1.18 16.25 4.06 13.56 3.52 12.98 0 16.25 3.52 19.52"/><line class="cls-2" x1="13" x2="38.2" y2="34.58"/></svg>