<svg id="Layer_1" data-name="Layer 1" xmlns="http://www.w3.org/2000/svg" viewBox="0 0 50 35"><defs><style>.cls-1{fill:#7fcadc;}.cls-2{fill:#231f20;}</style></defs><title>counter</title><path class="cls-1" d="M23.08,34.5a4.4,4.4,0,0,1-3.35-1.58,5.12,5.12,0,0,0-3.46-1.75H0.5V0.5h47V31.16H46.73a5.21,5.21,0,0,0-3.35,1.75,4.55,4.55,0,0,1-3.05,1.59H23.08Z"/><path class="cls-2" d="M47,1V30.66H46.72a5.68,5.68,0,0,0-3.66,1.88A4.12,4.12,0,0,1,40.33,34H23.08a3.9,3.9,0,0,1-3-1.44,5.54,5.54,0,0,0-3.78-1.89H1V1H47m1-1H0V31.67H16.25C19.42,31.83,19.5,35,23.08,35H40.33c2.88,0,3.79-3.25,6.42-3.33H48V0h0Z"/><rect class="cls-1" x="47.11" y="0.5" width="2.39" height="30.66"/><path class="cls-2" d="M49,1V30.66H47.61V1H49m1-1H46.61V31.66H50V0h0Z"/></svg>