<svg id="Layer_1" data-name="Layer 1" xmlns="http://www.w3.org/2000/svg" viewBox="0 0 48 35"><defs><style>.cls-1{fill:#7fcadc;}.cls-2{fill:#231f20;}.cls-3{fill:#fff;}.cls-4{fill:none;stroke:#231f20;stroke-miterlimit:10;}</style></defs><title>counter</title><path class="cls-1" d="M7.67,34.5a4.56,4.56,0,0,1-3.05-1.59,5.21,5.21,0,0,0-3.35-1.75H0.5V0.5h47V31.17H31.75a5.13,5.13,0,0,0-3.49,1.76,4.4,4.4,0,0,1-3.35,1.58H7.67Z"/><path class="cls-2" d="M47,1V30.67H31.7a5.54,5.54,0,0,0-3.78,1.89,3.9,3.9,0,0,1-3,1.44H7.67a4.12,4.12,0,0,1-2.72-1.46,5.68,5.68,0,0,0-3.66-1.88H1V1H47m1-1H0V31.67H1.25C3.88,31.75,4.79,35,7.67,35H24.92c3.58,0,3.67-3.17,6.83-3.33H48V0h0Z"/><rect class="cls-3" x="0.5" y="14" width="1.35" height="3.67"/><path class="cls-2" d="M1.35,14.5v2.67H1V14.5H1.35m1-1H0v4.67H2.35V13.5h0Z"/><line class="cls-4" x1="11.07" y1="0.87" x2="36.26" y2="35.46"/></svg>