<svg id="Layer_1" data-name="Layer 1" xmlns="http://www.w3.org/2000/svg" viewBox="0 0 48 35"><defs><style>.cls-1{fill:#d1d3d4;}.cls-2{fill:#231f20;}.cls-3{fill:#fff;}</style></defs><title>counter</title><path class="cls-1" d="M13,34.5A24,24,0,0,1,.5,31.4V17.75h47V31.41c-0.89.61-5,3.09-12.5,3.09H13Z"/><path class="cls-2" d="M47,18.25V31.14C45.83,31.89,41.91,34,35,34H13A24,24,0,0,1,1,31.12V18.25H47m1-1H0V31.67S4.62,35,13,35H35c8.88,0,13-3.33,13-3.33V17.25h0Z"/><rect class="cls-3" x="0.5" y="14" width="47" height="3.67"/><path class="cls-2" d="M47,14.5v2.67H1V14.5H47m1-1H0v4.67H48V13.5h0Z"/><circle class="cls-2" cx="12.54" cy="24.46" r="0.63"/><circle class="cls-2" cx="37.54" cy="24.46" r="0.63"/></svg>