<svg id="Layer_1" data-name="Layer 1" xmlns="http://www.w3.org/2000/svg" viewBox="0 0 104.91 50"><defs><style>.cls-1{fill:#fff;}</style></defs><title>logo</title><polygon class="cls-1" points="46.69 50 50.25 41.87 50.24 41.87 33.37 41.87 33.37 50 46.69 50"/><polygon class="cls-1" points="47.68 10.58 33.37 11.87 33.37 18.64 50.94 18.64 47.68 10.58"/><polygon class="cls-1" points="55.39 29.78 54.02 26.22 33.37 26.22 33.37 32.95 54.16 32.95 55.39 29.78"/><path class="cls-1" d="M102.41,19.41L74.25,11.83l-2.7,6.82,9.22,2.3L74.13,47.49,75.24,50h7.17L93,24l7.74,1.93A3.36,3.36,0,0,0,102.41,19.41Z" transform="translate(-0.05 0)"/><path class="cls-1" d="M8.11,50H16L10.86,25.75,25.2,50h8.21V8.76c0-6.92-1.84-8.76-4.1-8.76a4.09,4.09,0,0,0-4.09,4.1L25.1,33.25,13.52,15.09c-0.47-.65-2.83-4.48-7.57-4-4.18.43-6.26,4.16-5.85,6.44Z" transform="translate(-0.05 0)"/><path class="cls-1" d="M47.08,9l7,17.22,1.37,3.56L54.09,33,46.66,50h9L60.9,35.94,66.25,50h9l-1.11-2.51L66.94,30.26l7.3-18.43a3.8,3.8,0,0,0-7-3l-0.79,2c0,0.1-.08.2-0.11,0.31l-4.9,13.29L54.53,6A4,4,0,1,0,47,8.76Z" transform="translate(-0.05 0)"/></svg>